<svg version="1" xmlns="http://www.w3.org/2000/svg" width="2228" height="2228" viewBox="0 0 1671.000000 1671.000000"><path d="M825 212.4v212.3l-11.2.8c-66.7 4.1-129.2 23.5-186.1 57.5-92.5 55.2-159.8 144.8-186.7 248.5-9.7 37.1-13.1 64.8-13 105.4 0 55 9.1 102.8 28.9 152.6 16.9 42.3 44.7 87.2 74.1 119.7 3.9 4.2 7 8 7 8.5 0 1.6-194.5 195.3-196.2 195.3-2 0-19.2-18.5-36.3-39C200 1147.4 143.6 986.1 147.3 821.5c.9-38.1 3.6-66.3 9.8-102.5 23-134.8 86.3-259.9 181.9-359.3l11.4-11.8-7.2-7.2-7.2-7.2-5.6 5.5c-17.2 16.8-43 46.9-62.2 72.5C161.5 553.7 112.9 728.6 130.6 907c15.8 158.9 85.6 308.2 197.8 422.8l15 15.3L449 1239.5 554.5 1134l8.5 7.6c58.6 52.4 130.3 87.3 205.3 99.9 17.1 2.8 41 5.5 50.5 5.5h6.2v424h20.5v-423.5l15-.7c135.6-6.2 261.3-81.8 331.5-199.5 26.3-43.9 44.3-92.6 52.4-141.8 4.5-26.9 5.1-35.3 5.1-70.5-.1-29.1-.4-35.7-2.4-50.5-11-82.6-42.3-153.2-95.7-216-5.6-6.6-11.3-13.1-12.8-14.4-1.4-1.4-2.6-2.9-2.6-3.5 0-.6 43.4-44.5 96.5-97.6l96.5-96.5 6.1 6c24.9 24.5 62.1 72.1 85.2 109 57.8 92.7 91.1 190.9 102.4 302.5 2.6 25.2 2.6 99.9 0 125-9.3 91.2-31.7 168.7-71.3 247-30.8 61-67.2 112.6-115.3 163.5-7.2 7.6-13.1 14.1-13.1 14.4 0 .4 3.1 3.8 6.9 7.6l7 6.8 10.9-11.4c55.4-58.1 98.7-121.1 131.5-191.4 37.3-79.9 58.5-163.2 64.7-253.5 2.1-30.3 1.1-83.8-2.1-116.5-11.2-115.3-52.1-228.2-117.7-325-22.6-33.4-44.5-60.5-74.9-92.8l-19.6-20.9-104.1 104.1c-57.3 57.3-104.4 104.1-104.9 104.1-.4 0-6.5-4.9-13.5-10.8-40-34.1-81.5-58.3-129.8-75.8-34.5-12.5-79-21.2-117.9-23.2l-14-.7-.3-212.3L845 0h-20v212.4zm0 417.2c0 159.5-.2 184.5-1.4 184.2-1.4-.3-257.1-251.4-259.1-254.4-1.1-1.6.4-3.1 20-20.2 58.4-51 135.9-84.5 213-92.1 16.8-1.7 17.7-1.8 22.8-1.9l4.7-.2v184.6zM888.5 448c68.1 8.8 131.2 34.5 186 75.9 13.1 9.9 30.5 25 30.5 26.4 0 1.6-257.2 258.7-258.7 258.7-1 0-1.3-36.8-1.3-181.3 0-99.8.3-181.7.8-182.2 1.1-1.1 25.5.3 42.7 2.5zm243.3 129c51.7 57.8 84.6 130.1 95.3 209.5 2.6 19.3 3.6 59.5 2 79-4.2 50.1-16.4 95.6-37.5 140-16.3 34.1-40.6 69.8-65.3 95.8l-5.5 5.8-4.1-3.8c-9.4-8.4-257.7-253.6-257.7-254.4 0-.5 18.4-.9 41.8-.9 23 0 63.5-.3 90-.7l48.2-.6v-19.8l-89.5.7c-76.7.6-89.5.5-89.5-.7 0-2 259.2-261 261-260.7.8.2 5.6 5 10.8 10.8zM677.4 699.7C747.6 768.8 805 825.9 805 826.5c0 1.8-26.7 2.5-100.7 2.5H638v20.2l84-.3c55.5-.3 84-.1 84 .6 0 1.4-251.2 252.5-252.6 252.5-2.9 0-24.7-26.4-38.2-46.4-36.9-54.5-58.8-114.7-65.7-180.8-2-19.3-2-58.2 0-77.6 8.1-78.5 38.7-151.2 89.4-212 5.1-6.1 9.7-11.2 10.1-11.2.5 0 58.2 56.6 128.4 125.7zM825 1046v181h-5c-7.4 0-32.7-2.8-46.5-5.1-63.3-10.6-127.1-39-176.4-78.3-13-10.4-27.1-22.9-27.1-24.1 0-1.1 253.1-254.5 254.2-254.5.5 0 .8 81.4.8 181zm151.2-52c70.5 69.5 128.4 127 128.6 127.6.4 1.7-15.2 15.3-32.2 28-48.4 36.4-105.1 61-165.6 71.8-17.7 3.1-40.8 5.6-53 5.6h-9v-180.1c0-153.9.2-180 1.4-179.7.8.2 59.2 57.2 129.8 126.8z"/></svg>